<svg width="132" height="42" viewBox="0 0 132 42" fill="none" xmlns="http://www.w3.org/2000/svg">
<path d="M1.2959 0.601532H116.439C124.448 0.601532 130.939 7.0934 130.939 15.1015V41.2755H15.7959C7.78777 41.2755 1.2959 34.7836 1.2959 26.7755V0.601532Z" fill="black" stroke="#ACACAC"/>
<path fill-rule="evenodd" clip-rule="evenodd" d="M33.5263 21.2773C33.5263 26.5227 29.274 30.7749 24.0286 30.7749C18.7832 30.7749 14.531 26.5227 14.531 21.2773C14.531 16.0319 18.7832 11.7796 24.0286 11.7796C29.274 11.7796 33.5263 16.0319 33.5263 21.2773ZM35.6847 21.2773C35.6847 27.7147 30.4661 32.9333 24.0286 32.9333C17.5912 32.9333 12.3726 27.7147 12.3726 21.2773C12.3726 14.8398 17.5912 9.62122 24.0286 9.62122C30.4661 9.62122 35.6847 14.8398 35.6847 21.2773ZM18.414 23.9709C21.9271 26.8157 26.9513 26.8157 30.4644 23.9709L29.1061 22.2934C26.385 24.4969 22.4934 24.4969 19.7723 22.2934L18.414 23.9709ZM19.8771 20.2773V17.3614H22.0355V20.2773H19.8771ZM26.5747 17.3614V20.2773H28.7331V17.3614H26.5747Z" fill="white"/>
<path d="M48.5648 22.1499C49.5532 22.1499 50.3602 22.4102 50.986 22.9307C51.6176 23.4453 51.9334 24.3021 51.9334 25.5009V31.9398H49.3719V26.1238C49.3719 25.6208 49.3046 25.2348 49.1701 24.9658C48.9245 24.4746 48.4566 24.229 47.7666 24.229C46.9186 24.229 46.3367 24.5886 46.0209 25.3079C45.8571 25.6881 45.7753 26.1735 45.7753 26.7641V31.9398H43.2839V22.3956H45.6963V23.7903C46.018 23.2991 46.3221 22.9453 46.6086 22.7289C47.1233 22.3429 47.7753 22.1499 48.5648 22.1499Z" fill="white"/>
<path d="M57.8203 30.1766C58.5513 30.1766 59.1127 29.9163 59.5046 29.3958C59.8964 28.8753 60.0923 28.1355 60.0923 27.1764C60.0923 26.2173 59.8964 25.4805 59.5046 24.9658C59.1127 24.4453 58.5513 24.1851 57.8203 24.1851C57.0893 24.1851 56.5249 24.4453 56.1272 24.9658C55.7354 25.4805 55.5395 26.2173 55.5395 27.1764C55.5395 28.1355 55.7354 28.8753 56.1272 29.3958C56.5249 29.9163 57.0893 30.1766 57.8203 30.1766ZM62.7152 27.1764C62.7152 28.58 62.3117 29.7818 61.5046 30.7818C60.6976 31.776 59.4724 32.2731 57.829 32.2731C56.1857 32.2731 54.9605 31.776 54.1535 30.7818C53.3464 29.7818 52.9429 28.58 52.9429 27.1764C52.9429 25.7963 53.3464 24.6003 54.1535 23.5886C54.9605 22.5768 56.1857 22.071 57.829 22.071C59.4724 22.071 60.6976 22.5768 61.5046 23.5886C62.3117 24.6003 62.7152 25.7963 62.7152 27.1764Z" fill="white"/>
<path d="M62.8124 24.2465V22.4657H64.1458V19.799H66.6196V22.4657H68.1723V24.2465H66.6196V29.2993C66.6196 29.6912 66.6693 29.9368 66.7687 30.0362C66.8681 30.1298 67.1722 30.1766 67.681 30.1766C67.757 30.1766 67.836 30.1766 67.9179 30.1766C68.0056 30.1707 68.0904 30.1649 68.1723 30.159V32.0275L66.988 32.0714C65.8067 32.1123 64.9996 31.9076 64.5669 31.4573C64.2861 31.1707 64.1458 30.7292 64.1458 30.1327V24.2465H62.8124Z" fill="white"/>
<path d="M77.8288 22.1675C79.0862 22.1675 80.0687 22.6207 80.7763 23.5272C81.4898 24.4336 81.8465 25.6033 81.8465 27.0361C81.8465 28.5215 81.4956 29.7526 80.7938 30.7292C80.092 31.7058 79.1125 32.1942 77.8551 32.1942C77.0656 32.1942 76.4311 32.0363 75.9515 31.7205C75.665 31.5333 75.355 31.2058 75.0217 30.738V31.9398H72.5742V19.027H75.0655V23.6237C75.3813 23.1792 75.7293 22.84 76.1094 22.6061C76.5597 22.3137 77.1329 22.1675 77.8288 22.1675ZM77.1884 30.1327C77.8317 30.1327 78.3317 29.8724 78.6885 29.352C79.0452 28.8315 79.2236 28.1472 79.2236 27.2992C79.2236 26.6209 79.1359 26.0594 78.9604 25.615C78.6271 24.7728 78.013 24.3518 77.1182 24.3518C76.2118 24.3518 75.5889 24.7641 75.2498 25.5887C75.0743 26.0273 74.9866 26.5945 74.9866 27.2905C74.9866 28.1092 75.1679 28.7876 75.5305 29.3256C75.8931 29.8637 76.4457 30.1327 77.1884 30.1327Z" fill="white"/>
<path d="M83.3122 33.7732L83.628 33.7907C83.8736 33.8024 84.1075 33.7936 84.3297 33.7644C84.552 33.7352 84.7391 33.6679 84.8912 33.5626C85.0374 33.4632 85.1719 33.2556 85.2947 32.9398C85.4234 32.624 85.476 32.431 85.4526 32.3608L81.9437 22.378H84.7245L86.8123 29.4309L88.7861 22.378H91.4441L88.1632 31.7819C87.5316 33.5948 87.0316 34.7177 86.6632 35.1504C86.2947 35.589 85.5579 35.8083 84.4526 35.8083C84.2303 35.8083 84.052 35.8054 83.9175 35.7996C83.7829 35.7996 83.5812 35.7908 83.3122 35.7733V33.7732Z" fill="white"/>
<path d="M97.9765 27.0536H101.257L99.6432 21.9657L97.9765 27.0536ZM98.1431 19.0095H101.196L105.775 31.9398H102.845L102.012 29.2818H97.2484L96.3536 31.9398H93.5289L98.1431 19.0095Z" fill="white"/>
<path d="M110.763 31.9398H108.078V19.0095H110.763V31.9398Z" fill="white"/>
<path d="M106.486 19.0095H112.17V21.2089H106.486V19.0095Z" fill="white"/>
<path d="M106.486 29.7433H112.17V31.9428H106.486V29.7433Z" fill="white"/>
<path d="M45.1303 14.459C45.5431 14.459 45.8856 14.287 46.1575 13.943C46.4328 13.5956 46.5704 13.0779 46.5704 12.3898C46.5704 11.9704 46.5098 11.6099 46.3885 11.3085C46.1592 10.7285 45.7397 10.4385 45.1303 10.4385C44.5175 10.4385 44.0981 10.7449 43.872 11.3576C43.7508 11.6853 43.6902 12.1014 43.6902 12.6061C43.6902 13.0124 43.7508 13.3581 43.872 13.6431C44.1014 14.1871 44.5208 14.459 45.1303 14.459ZM42.8398 9.81429H43.7V10.5122C43.8769 10.273 44.0703 10.0879 44.28 9.95682C44.5781 9.76022 44.9288 9.66192 45.3318 9.66192C45.9282 9.66192 46.4344 9.89129 46.8506 10.35C47.2667 10.8055 47.4748 11.4576 47.4748 12.3062C47.4748 13.4531 47.175 14.2723 46.5753 14.7638C46.1952 15.0751 45.7529 15.2307 45.2482 15.2307C44.8518 15.2307 44.5192 15.1439 44.2505 14.9702C44.0932 14.8719 43.9179 14.7032 43.7246 14.464V17.1525H42.8398V9.81429Z" fill="white"/>
<path d="M48.7875 13.653C48.7875 13.9086 48.8809 14.1101 49.0677 14.2575C49.2544 14.405 49.4756 14.4787 49.7312 14.4787C50.0425 14.4787 50.3439 14.4066 50.6356 14.2624C51.1271 14.0232 51.3728 13.6317 51.3728 13.0877V12.375C51.2647 12.4439 51.1254 12.5012 50.9551 12.5471C50.7847 12.593 50.6175 12.6257 50.4537 12.6454L49.918 12.7142C49.5968 12.7568 49.356 12.824 49.1954 12.9157C48.9235 13.0697 48.7875 13.3155 48.7875 13.653ZM50.9305 11.8639C51.1336 11.8377 51.2696 11.7525 51.3384 11.6083C51.3777 11.5297 51.3974 11.4166 51.3974 11.2692C51.3974 10.9677 51.2893 10.7498 51.073 10.6154C50.86 10.4778 50.5537 10.409 50.1539 10.409C49.6919 10.409 49.3642 10.5335 49.1709 10.7826C49.0627 10.9202 48.9923 11.125 48.9595 11.3969H48.1338C48.1502 10.7482 48.3599 10.2976 48.7629 10.0453C49.1692 9.78971 49.6394 9.66192 50.1736 9.66192C50.7929 9.66192 51.2958 9.77988 51.6825 10.0158C52.0659 10.2517 52.2575 10.6187 52.2575 11.1168V14.1494C52.2575 14.2411 52.2756 14.3149 52.3116 14.3706C52.3509 14.4263 52.4312 14.4541 52.5525 14.4541C52.5918 14.4541 52.636 14.4525 52.6852 14.4492C52.7343 14.4427 52.7867 14.4345 52.8424 14.4246V15.0783C52.7048 15.1177 52.6 15.1422 52.5279 15.1521C52.4558 15.1619 52.3575 15.1668 52.233 15.1668C51.9282 15.1668 51.7071 15.0587 51.5694 14.8424C51.4973 14.7277 51.4466 14.5655 51.4171 14.3558C51.2368 14.5918 50.978 14.7965 50.6405 14.9702C50.303 15.1439 49.9311 15.2307 49.5248 15.2307C49.0365 15.2307 48.6368 15.0833 48.3255 14.7884C48.0175 14.4902 47.8635 14.1183 47.8635 13.6726C47.8635 13.1844 48.0158 12.8059 48.3206 12.5372C48.6253 12.2686 49.0251 12.1031 49.5198 12.0408L50.9305 11.8639Z" fill="white"/>
<path d="M53.3098 9.81429H54.2092V15.0538H53.3098V9.81429ZM53.3098 7.8335H54.2092V8.83618H53.3098V7.8335Z" fill="white"/>
<path d="M55.1484 9.78971H55.9889V10.5368C56.2379 10.2288 56.5017 10.0076 56.7802 9.87327C57.0587 9.73892 57.3684 9.67175 57.7092 9.67175C58.4563 9.67175 58.9609 9.93225 59.223 10.4532C59.3672 10.7383 59.4393 11.1463 59.4393 11.6771V15.0538H58.5398V11.7361C58.5398 11.415 58.4923 11.1561 58.3973 10.9595C58.24 10.6318 57.9549 10.468 57.5421 10.468C57.3323 10.468 57.1603 10.4893 57.026 10.5319C56.7835 10.604 56.5705 10.7482 56.387 10.9644C56.2396 11.1381 56.1429 11.3183 56.097 11.5051C56.0544 11.6886 56.0331 11.9524 56.0331 12.2964V15.0538H55.1484V9.78971Z" fill="white"/>
<path d="M60.5259 8.3201H61.4205V9.78971H62.2609V10.5122H61.4205V13.9479C61.4205 14.1314 61.4827 14.2543 61.6072 14.3165C61.676 14.3526 61.7907 14.3706 61.9513 14.3706C61.9939 14.3706 62.0398 14.3706 62.0889 14.3706C62.1381 14.3673 62.1954 14.3624 62.2609 14.3558V15.0538C62.1594 15.0833 62.0529 15.1046 61.9415 15.1177C61.8333 15.1308 61.7154 15.1373 61.5876 15.1373C61.1747 15.1373 60.8945 15.0325 60.7471 14.8228C60.5996 14.6098 60.5259 14.3345 60.5259 13.997V10.5122H59.8132V9.78971H60.5259V8.3201Z" fill="white"/>
<path d="M64.9401 9.67175C65.3136 9.67175 65.6757 9.76022 66.0263 9.93716C66.3769 10.1108 66.644 10.3369 66.8274 10.6154C67.0044 10.8809 67.1224 11.1905 67.1813 11.5444C67.2338 11.7869 67.26 12.1735 67.26 12.7044H63.4016C63.418 13.2385 63.5442 13.6677 63.7801 13.9921C64.016 14.3132 64.3814 14.4738 64.8762 14.4738C65.3382 14.4738 65.7068 14.3214 65.9821 14.0167C66.1393 13.8397 66.2507 13.6349 66.3163 13.4023H67.1863C67.1633 13.5956 67.0863 13.8119 66.9552 14.0511C66.8274 14.287 66.6833 14.4803 66.5227 14.6311C66.254 14.8932 65.9214 15.0702 65.525 15.1619C65.312 15.2143 65.0711 15.2405 64.8024 15.2405C64.1471 15.2405 63.5917 15.003 63.1362 14.5279C62.6808 14.0495 62.453 13.381 62.453 12.5225C62.453 11.6771 62.6824 10.9906 63.1411 10.4631C63.5999 9.93553 64.1995 9.67175 64.9401 9.67175ZM66.3507 12.0015C66.3146 11.6181 66.2311 11.3118 66.1 11.0824C65.8575 10.6564 65.4529 10.4434 64.886 10.4434C64.4797 10.4434 64.1389 10.5909 63.8636 10.8858C63.5884 11.1774 63.4426 11.5493 63.4262 12.0015H66.3507Z" fill="white"/>
<path d="M68.5088 12.4832C68.5088 13.0468 68.6284 13.5186 68.8676 13.8987C69.1068 14.2788 69.4902 14.4689 70.0177 14.4689C70.4273 14.4689 70.7632 14.2936 71.0253 13.943C71.2907 13.5891 71.4235 13.0828 71.4235 12.4242C71.4235 11.759 71.2875 11.2675 71.0155 10.9497C70.7435 10.6286 70.4077 10.468 70.0079 10.468C69.5623 10.468 69.2002 10.6384 68.9217 10.9792C68.6464 11.3199 68.5088 11.8213 68.5088 12.4832ZM69.8408 9.69632C70.2438 9.69632 70.5813 9.78152 70.8533 9.95191C71.0106 10.0502 71.1892 10.2222 71.389 10.468V7.80893H72.2394V15.0538H71.4431V14.3214C71.2367 14.6458 70.9926 14.8801 70.7108 15.0243C70.429 15.1685 70.1062 15.2405 69.7425 15.2405C69.156 15.2405 68.6481 14.9948 68.2188 14.5033C67.7896 14.0085 67.5749 13.3515 67.5749 12.5323C67.5749 11.7656 67.7699 11.102 68.1598 10.5417C68.553 9.97812 69.1134 9.69632 69.8408 9.69632Z" fill="white"/>
<path d="M75.4792 7.80893H76.3393V10.4287C76.5327 10.1764 76.7637 9.98468 77.0324 9.85361C77.301 9.71926 77.5927 9.65209 77.9072 9.65209C78.5626 9.65209 79.0934 9.87818 79.4997 10.3304C79.9093 10.7793 80.1141 11.4428 80.1141 12.321C80.1141 13.1533 79.9126 13.8447 79.5096 14.3952C79.1065 14.9456 78.5478 15.2209 77.8335 15.2209C77.4338 15.2209 77.0963 15.1242 76.821 14.9309C76.6572 14.8162 76.4819 14.6327 76.2951 14.3804V15.0538H75.4792V7.80893ZM77.7794 14.4394C78.2579 14.4394 78.615 14.2493 78.8509 13.8692C79.0901 13.4891 79.2097 12.9878 79.2097 12.3652C79.2097 11.8115 79.0901 11.3527 78.8509 10.989C78.615 10.6253 78.266 10.4434 77.804 10.4434C77.401 10.4434 77.0471 10.5925 76.7424 10.8907C76.4409 11.1889 76.2902 11.6804 76.2902 12.3652C76.2902 12.86 76.3524 13.2614 76.477 13.5694C76.7096 14.1494 77.1438 14.4394 77.7794 14.4394Z" fill="white"/>
<path d="M84.0368 9.78971H85.0149C84.8903 10.1272 84.6135 10.8972 84.1842 12.0998C83.8631 13.0042 83.5944 13.7414 83.3781 14.3116C82.867 15.6551 82.5065 16.4742 82.2968 16.7691C82.0871 17.064 81.7267 17.2115 81.2155 17.2115C81.091 17.2115 80.9943 17.2066 80.9255 17.1968C80.86 17.1869 80.7781 17.1689 80.6797 17.1427V16.3366C80.8338 16.3792 80.9452 16.4054 81.014 16.4153C81.0828 16.4251 81.1434 16.43 81.1958 16.43C81.3597 16.43 81.4793 16.4021 81.5546 16.3464C81.6333 16.294 81.6988 16.2285 81.7512 16.1498C81.7676 16.1236 81.8266 15.9893 81.9282 15.7468C82.0298 15.5043 82.1035 15.3241 82.1494 15.2061L80.203 9.78971H81.2057L82.6163 14.0757L84.0368 9.78971Z" fill="white"/>
<path d="M87.7779 7.80893H88.6626V10.5024C88.8724 10.237 89.0608 10.0502 89.2279 9.94208C89.513 9.75531 89.8685 9.66192 90.2945 9.66192C91.0579 9.66192 91.5757 9.92897 91.8476 10.4631C91.9951 10.7547 92.0688 11.1594 92.0688 11.6771V15.0538H91.1595V11.7361C91.1595 11.3494 91.1104 11.066 91.0121 10.8858C90.8515 10.5974 90.55 10.4532 90.1077 10.4532C89.7407 10.4532 89.4081 10.5794 89.1099 10.8317C88.8117 11.084 88.6626 11.5608 88.6626 12.262V15.0538H87.7779V7.80893Z" fill="white"/>
<path d="M93.8632 9.78971V13.2843C93.8632 13.553 93.9058 13.7726 93.991 13.943C94.1483 14.2575 94.4415 14.4148 94.8708 14.4148C95.4868 14.4148 95.9062 14.1396 96.1291 13.5891C96.2503 13.2942 96.3109 12.8895 96.3109 12.375V9.78971H97.1956V15.0538H96.3601L96.3699 14.2772C96.2552 14.4771 96.1127 14.6458 95.9423 14.7834C95.6048 15.0587 95.1952 15.1963 94.7135 15.1963C93.9631 15.1963 93.452 14.9456 93.18 14.4443C93.0326 14.1756 92.9588 13.8168 92.9588 13.3679V9.78971H93.8632Z" fill="white"/>
<path d="M98.179 9.78971H99.0539V10.5368C99.2636 10.2779 99.4537 10.0895 99.6241 9.97157C99.9157 9.77169 100.247 9.67175 100.617 9.67175C101.036 9.67175 101.374 9.77497 101.629 9.9814C101.774 10.0994 101.905 10.273 102.023 10.5024C102.219 10.2206 102.45 10.0125 102.716 9.87818C102.981 9.74056 103.279 9.67175 103.61 9.67175C104.318 9.67175 104.8 9.92733 105.055 10.4385C105.193 10.7137 105.262 11.084 105.262 11.5493V15.0538H104.343V11.3969C104.343 11.0463 104.254 10.8055 104.077 10.6744C103.903 10.5434 103.69 10.4778 103.438 10.4778C103.091 10.4778 102.791 10.5941 102.539 10.8268C102.29 11.0594 102.165 11.4477 102.165 11.9917V15.0538H101.266V11.6181C101.266 11.261 101.223 11.0005 101.138 10.8366C101.004 10.5909 100.753 10.468 100.386 10.468C100.052 10.468 99.747 10.5974 99.4717 10.8563C99.1997 11.1151 99.0638 11.5837 99.0638 12.262V15.0538H98.179V9.78971Z" fill="white"/>
<path d="M106.84 13.653C106.84 13.9086 106.933 14.1101 107.12 14.2575C107.307 14.405 107.528 14.4787 107.784 14.4787C108.095 14.4787 108.396 14.4066 108.688 14.2624C109.179 14.0232 109.425 13.6317 109.425 13.0877V12.375C109.317 12.4439 109.178 12.5012 109.007 12.5471C108.837 12.593 108.67 12.6257 108.506 12.6454L107.97 12.7142C107.649 12.7568 107.408 12.824 107.248 12.9157C106.976 13.0697 106.84 13.3155 106.84 13.653ZM108.983 11.8639C109.186 11.8377 109.322 11.7525 109.391 11.6083C109.43 11.5297 109.45 11.4166 109.45 11.2692C109.45 10.9677 109.342 10.7498 109.125 10.6154C108.912 10.4778 108.606 10.409 108.206 10.409C107.744 10.409 107.417 10.5335 107.223 10.7826C107.115 10.9202 107.045 11.125 107.012 11.3969H106.186C106.203 10.7482 106.412 10.2976 106.815 10.0453C107.222 9.78971 107.692 9.66192 108.226 9.66192C108.845 9.66192 109.348 9.77988 109.735 10.0158C110.118 10.2517 110.31 10.6187 110.31 11.1168V14.1494C110.31 14.2411 110.328 14.3149 110.364 14.3706C110.403 14.4263 110.484 14.4541 110.605 14.4541C110.644 14.4541 110.688 14.4525 110.737 14.4492C110.787 14.4427 110.839 14.4345 110.895 14.4246V15.0783C110.757 15.1177 110.652 15.1422 110.58 15.1521C110.508 15.1619 110.41 15.1668 110.285 15.1668C109.981 15.1668 109.759 15.0587 109.622 14.8424C109.55 14.7277 109.499 14.5655 109.469 14.3558C109.289 14.5918 109.03 14.7965 108.693 14.9702C108.355 15.1439 107.983 15.2307 107.577 15.2307C107.089 15.2307 106.689 15.0833 106.378 14.7884C106.07 14.4902 105.916 14.1183 105.916 13.6726C105.916 13.1844 106.068 12.8059 106.373 12.5372C106.678 12.2686 107.077 12.1031 107.572 12.0408L108.983 11.8639Z" fill="white"/>
<path d="M111.362 9.78971H112.203V10.5368C112.452 10.2288 112.715 10.0076 112.994 9.87327C113.272 9.73892 113.582 9.67175 113.923 9.67175C114.67 9.67175 115.175 9.93225 115.437 10.4532C115.581 10.7383 115.653 11.1463 115.653 11.6771V15.0538H114.754V11.7361C114.754 11.415 114.706 11.1561 114.611 10.9595C114.454 10.6318 114.169 10.468 113.756 10.468C113.546 10.468 113.374 10.4893 113.24 10.5319C112.997 10.604 112.784 10.7482 112.601 10.9644C112.453 11.1381 112.357 11.3183 112.311 11.5051C112.268 11.6886 112.247 11.9524 112.247 12.2964V15.0538H111.362V9.78971Z" fill="white"/>
</svg>
