<svg width="131" height="42" viewBox="0 0 131 42" fill="none" xmlns="http://www.w3.org/2000/svg">
<path d="M0.652344 0.601532H115.796C123.804 0.601532 130.296 7.0934 130.296 15.1015V41.2755H15.1523C7.14421 41.2755 0.652344 34.7836 0.652344 26.7755V0.601532Z" fill="white" stroke="black"/>
<path fill-rule="evenodd" clip-rule="evenodd" d="M32.8827 21.2773C32.8827 26.5227 28.6305 30.7749 23.3851 30.7749C18.1397 30.7749 13.8874 26.5227 13.8874 21.2773C13.8874 16.0319 18.1397 11.7796 23.3851 11.7796C28.6305 11.7796 32.8827 16.0319 32.8827 21.2773ZM35.0411 21.2773C35.0411 27.7147 29.8225 32.9333 23.3851 32.9333C16.9476 32.9333 11.729 27.7147 11.729 21.2773C11.729 14.8398 16.9476 9.62122 23.3851 9.62122C29.8225 9.62122 35.0411 14.8398 35.0411 21.2773ZM17.7704 23.9709C21.2835 26.8157 26.3078 26.8157 29.8209 23.9709L28.4626 22.2934C25.7414 24.4969 21.8499 24.4969 19.1288 22.2934L17.7704 23.9709ZM19.2335 20.2773V17.3614H21.3919V20.2773H19.2335ZM25.9312 17.3614V20.2773H28.0896V17.3614H25.9312Z" fill="black"/>
<path d="M47.9213 22.1499C48.9096 22.1499 49.7167 22.4102 50.3424 22.9307C50.974 23.4453 51.2898 24.3021 51.2898 25.5009V31.9398H48.7283V26.1238C48.7283 25.6208 48.6611 25.2348 48.5266 24.9658C48.2809 24.4746 47.8131 24.229 47.123 24.229C46.275 24.229 45.6931 24.5886 45.3773 25.3079C45.2136 25.6881 45.1317 26.1735 45.1317 26.7641V31.9398H42.6404V22.3956H45.0528V23.7903C45.3744 23.2991 45.6785 22.9453 45.9651 22.7289C46.4797 22.3429 47.1318 22.1499 47.9213 22.1499Z" fill="black"/>
<path d="M57.1767 30.1766C57.9077 30.1766 58.4692 29.9163 58.861 29.3958C59.2528 28.8753 59.4487 28.1355 59.4487 27.1764C59.4487 26.2173 59.2528 25.4805 58.861 24.9658C58.4692 24.4453 57.9077 24.1851 57.1767 24.1851C56.4457 24.1851 55.8814 24.4453 55.4837 24.9658C55.0918 25.4805 54.8959 26.2173 54.8959 27.1764C54.8959 28.1355 55.0918 28.8753 55.4837 29.3958C55.8814 29.9163 56.4457 30.1766 57.1767 30.1766ZM62.0716 27.1764C62.0716 28.58 61.6681 29.7818 60.8611 30.7818C60.054 31.776 58.8288 32.2731 57.1855 32.2731C55.5422 32.2731 54.317 31.776 53.5099 30.7818C52.7029 29.7818 52.2993 28.58 52.2993 27.1764C52.2993 25.7963 52.7029 24.6003 53.5099 23.5886C54.317 22.5768 55.5422 22.071 57.1855 22.071C58.8288 22.071 60.054 22.5768 60.8611 23.5886C61.6681 24.6003 62.0716 25.7963 62.0716 27.1764Z" fill="black"/>
<path d="M62.1688 24.2465V22.4657H63.5022V19.799H65.976V22.4657H67.5287V24.2465H65.976V29.2993C65.976 29.6912 66.0257 29.9368 66.1251 30.0362C66.2246 30.1298 66.5287 30.1766 67.0374 30.1766C67.1135 30.1766 67.1924 30.1766 67.2743 30.1766C67.362 30.1707 67.4468 30.1649 67.5287 30.159V32.0275L66.3444 32.0714C65.1631 32.1123 64.3561 31.9076 63.9233 31.4573C63.6426 31.1707 63.5022 30.7292 63.5022 30.1327V24.2465H62.1688Z" fill="black"/>
<path d="M77.1852 22.1675C78.4426 22.1675 79.4251 22.6207 80.1327 23.5272C80.8462 24.4336 81.2029 25.6033 81.2029 27.0361C81.2029 28.5215 80.852 29.7526 80.1503 30.7292C79.4485 31.7058 78.4689 32.1942 77.2116 32.1942C76.4221 32.1942 75.7875 32.0363 75.308 31.7205C75.0214 31.5333 74.7115 31.2058 74.3781 30.738V31.9398H71.9307V19.027H74.422V23.6237C74.7378 23.1792 75.0858 22.84 75.4659 22.6061C75.9162 22.3137 76.4893 22.1675 77.1852 22.1675ZM76.5449 30.1327C77.1882 30.1327 77.6882 29.8724 78.0449 29.352C78.4017 28.8315 78.58 28.1472 78.58 27.2992C78.58 26.6209 78.4923 26.0594 78.3169 25.615C77.9835 24.7728 77.3695 24.3518 76.4747 24.3518C75.5682 24.3518 74.9454 24.7641 74.6062 25.5887C74.4308 26.0273 74.343 26.5945 74.343 27.2905C74.343 28.1092 74.5243 28.7876 74.8869 29.3256C75.2495 29.8637 75.8022 30.1327 76.5449 30.1327Z" fill="black"/>
<path d="M82.6686 33.7732L82.9844 33.7907C83.23 33.8024 83.464 33.7936 83.6862 33.7644C83.9084 33.7352 84.0956 33.6679 84.2476 33.5626C84.3938 33.4632 84.5283 33.2556 84.6511 32.9398C84.7798 32.624 84.8324 32.431 84.809 32.3608L81.3001 22.378H84.0809L86.1687 29.4309L88.1425 22.378H90.8005L87.5197 31.7819C86.8881 33.5948 86.388 34.7177 86.0196 35.1504C85.6512 35.589 84.9143 35.8083 83.809 35.8083C83.5868 35.8083 83.4084 35.8054 83.2739 35.7996C83.1394 35.7996 82.9376 35.7908 82.6686 35.7733V33.7732Z" fill="black"/>
<path d="M97.3329 27.0536H100.614L98.9996 21.9657L97.3329 27.0536ZM97.4996 19.0095H100.552L105.131 31.9398H102.201L101.368 29.2818H96.6048L95.71 31.9398H92.8854L97.4996 19.0095Z" fill="black"/>
<path d="M110.119 31.9398H107.435V19.0095H110.119V31.9398Z" fill="black"/>
<path d="M105.842 19.0095H111.526V21.2089H105.842V19.0095Z" fill="black"/>
<path d="M105.842 29.7433H111.526V31.9428H105.842V29.7433Z" fill="black"/>
<path d="M44.4867 14.3226C44.8996 14.3226 45.242 14.1505 45.514 13.8065C45.7892 13.4592 45.9268 12.9414 45.9268 12.2533C45.9268 11.8339 45.8662 11.4735 45.745 11.172C45.5156 10.592 45.0962 10.302 44.4867 10.302C43.874 10.302 43.4546 10.6084 43.2285 11.2211C43.1072 11.5488 43.0466 11.965 43.0466 12.4696C43.0466 12.8759 43.1072 13.2216 43.2285 13.5067C43.4578 14.0506 43.8773 14.3226 44.4867 14.3226ZM42.1963 9.67781H43.0564V10.3758C43.2334 10.1366 43.4267 9.95142 43.6364 9.82035C43.9346 9.62375 44.2852 9.52544 44.6882 9.52544C45.2846 9.52544 45.7909 9.75481 46.207 10.2136C46.6231 10.669 46.8312 11.3211 46.8312 12.1698C46.8312 13.3166 46.5314 14.1358 45.9318 14.6273C45.5517 14.9386 45.1093 15.0942 44.6047 15.0942C44.2082 15.0942 43.8756 15.0074 43.6069 14.8337C43.4496 14.7354 43.2743 14.5667 43.081 14.3275V17.016H42.1963V9.67781Z" fill="black"/>
<path d="M48.1439 13.5165C48.1439 13.7721 48.2373 13.9736 48.4241 14.1211C48.6109 14.2685 48.8321 14.3422 49.0876 14.3422C49.3989 14.3422 49.7004 14.2701 49.992 14.126C50.4835 13.8868 50.7293 13.4952 50.7293 12.9513V12.2386C50.6211 12.3074 50.4819 12.3647 50.3115 12.4106C50.1411 12.4565 49.974 12.4892 49.8102 12.5089L49.2744 12.5777C48.9533 12.6203 48.7125 12.6875 48.5519 12.7792C48.2799 12.9332 48.1439 13.179 48.1439 13.5165ZM50.2869 11.7274C50.4901 11.7012 50.6261 11.616 50.6949 11.4718C50.7342 11.3932 50.7539 11.2801 50.7539 11.1327C50.7539 10.8312 50.6457 10.6133 50.4295 10.479C50.2165 10.3413 49.9101 10.2725 49.5103 10.2725C49.0483 10.2725 48.7206 10.3971 48.5273 10.6461C48.4192 10.7837 48.3487 10.9885 48.316 11.2605H47.4902C47.5066 10.6117 47.7163 10.1611 48.1194 9.90882C48.5257 9.65324 48.9959 9.52544 49.53 9.52544C50.1493 9.52544 50.6523 9.64341 51.0389 9.87933C51.4223 10.1153 51.614 10.4822 51.614 10.9803V14.0129C51.614 14.1047 51.632 14.1784 51.6681 14.2341C51.7074 14.2898 51.7877 14.3177 51.9089 14.3177C51.9482 14.3177 51.9925 14.316 52.0416 14.3127C52.0908 14.3062 52.1432 14.298 52.1989 14.2882V14.9419C52.0613 14.9812 51.9564 15.0058 51.8843 15.0156C51.8122 15.0254 51.7139 15.0303 51.5894 15.0303C51.2847 15.0303 51.0635 14.9222 50.9259 14.7059C50.8538 14.5913 50.803 14.4291 50.7735 14.2194C50.5933 14.4553 50.3344 14.6601 49.9969 14.8337C49.6594 15.0074 49.2875 15.0942 48.8812 15.0942C48.393 15.0942 47.9932 14.9468 47.6819 14.6519C47.3739 14.3537 47.2199 13.9818 47.2199 13.5362C47.2199 13.0479 47.3723 12.6695 47.677 12.4008C47.9817 12.1321 48.3815 11.9666 48.8763 11.9043L50.2869 11.7274Z" fill="black"/>
<path d="M52.6662 9.67781H53.5657V14.9173H52.6662V9.67781ZM52.6662 7.69703H53.5657V8.69971H52.6662V7.69703Z" fill="black"/>
<path d="M54.5049 9.65324H55.3453V10.4003C55.5944 10.0923 55.8581 9.87114 56.1367 9.73679C56.4152 9.60245 56.7248 9.53527 57.0656 9.53527C57.8127 9.53527 58.3173 9.79577 58.5795 10.3168C58.7236 10.6018 58.7957 11.0098 58.7957 11.5406V14.9173H57.8963V11.5996C57.8963 11.2785 57.8488 11.0196 57.7537 10.823C57.5964 10.4954 57.3114 10.3315 56.8985 10.3315C56.6888 10.3315 56.5168 10.3528 56.3824 10.3954C56.1399 10.4675 55.927 10.6117 55.7435 10.8279C55.596 11.0016 55.4993 11.1818 55.4535 11.3686C55.4109 11.5521 55.3896 11.8159 55.3896 12.1599V14.9173H54.5049V9.65324Z" fill="black"/>
<path d="M59.8824 8.18362H60.7769V9.65324H61.6174V10.3758H60.7769V13.8114C60.7769 13.9949 60.8392 14.1178 60.9637 14.18C61.0325 14.2161 61.1472 14.2341 61.3077 14.2341C61.3503 14.2341 61.3962 14.2341 61.4454 14.2341C61.4945 14.2308 61.5518 14.2259 61.6174 14.2194V14.9173C61.5158 14.9468 61.4093 14.9681 61.2979 14.9812C61.1898 14.9943 61.0718 15.0009 60.944 15.0009C60.5311 15.0009 60.251 14.896 60.1035 14.6863C59.9561 14.4733 59.8824 14.1981 59.8824 13.8606V10.3758H59.1697V9.65324H59.8824V8.18362Z" fill="black"/>
<path d="M64.2965 9.53527C64.67 9.53527 65.0321 9.62375 65.3827 9.80069C65.7333 9.97436 66.0004 10.2004 66.1839 10.479C66.3608 10.7444 66.4788 11.054 66.5378 11.4079C66.5902 11.6504 66.6164 12.0371 66.6164 12.5679H62.7581C62.7745 13.102 62.9006 13.5312 63.1365 13.8556C63.3725 14.1768 63.7378 14.3373 64.2326 14.3373C64.6946 14.3373 65.0633 14.1849 65.3385 13.8802C65.4958 13.7033 65.6072 13.4985 65.6727 13.2658H66.5427C66.5198 13.4592 66.4428 13.6754 66.3117 13.9146C66.1839 14.1505 66.0397 14.3439 65.8792 14.4946C65.6105 14.7567 65.2779 14.9337 64.8814 15.0254C64.6684 15.0779 64.4276 15.1041 64.1589 15.1041C63.5035 15.1041 62.9481 14.8665 62.4927 14.3914C62.0372 13.913 61.8095 13.2445 61.8095 12.386C61.8095 11.5406 62.0388 10.8542 62.4976 10.3266C62.9563 9.79905 63.556 9.53527 64.2965 9.53527ZM65.7071 11.865C65.6711 11.4816 65.5875 11.1753 65.4565 10.9459C65.214 10.5199 64.8093 10.3069 64.2424 10.3069C63.8361 10.3069 63.4953 10.4544 63.2201 10.7493C62.9448 11.0409 62.799 11.4128 62.7827 11.865H65.7071Z" fill="black"/>
<path d="M67.8652 12.3467C67.8652 12.9103 67.9848 13.3822 68.2241 13.7623C68.4633 14.1424 68.8466 14.3324 69.3742 14.3324C69.7838 14.3324 70.1196 14.1571 70.3818 13.8065C70.6472 13.4526 70.7799 12.9463 70.7799 12.2877C70.7799 11.6225 70.6439 11.131 70.3719 10.8132C70.1 10.4921 69.7641 10.3315 69.3644 10.3315C68.9187 10.3315 68.5566 10.5019 68.2781 10.8427C68.0029 11.1835 67.8652 11.6848 67.8652 12.3467ZM69.1972 9.55985C69.6003 9.55985 69.9378 9.64504 70.2097 9.81543C70.367 9.91374 70.5456 10.0858 70.7455 10.3315V7.67245H71.5958V14.9173H70.7996V14.1849C70.5931 14.5093 70.349 14.7436 70.0672 14.8878C69.7854 15.032 69.4627 15.1041 69.0989 15.1041C68.5124 15.1041 68.0045 14.8583 67.5753 14.3668C67.146 13.872 66.9314 13.215 66.9314 12.3959C66.9314 11.6291 67.1263 10.9656 67.5163 10.4052C67.9095 9.84165 68.4698 9.55985 69.1972 9.55985Z" fill="black"/>
<path d="M74.8356 7.67245H75.6958V10.2922C75.8891 10.0399 76.1201 9.8482 76.3888 9.71713C76.6575 9.58279 76.9491 9.51561 77.2637 9.51561C77.919 9.51561 78.4499 9.74171 78.8562 10.1939C79.2658 10.6428 79.4706 11.3063 79.4706 12.1845C79.4706 13.0168 79.269 13.7082 78.866 14.2587C78.463 14.8092 77.9043 15.0844 77.19 15.0844C76.7902 15.0844 76.4527 14.9877 76.1775 14.7944C76.0136 14.6797 75.8383 14.4962 75.6515 14.2439V14.9173H74.8356V7.67245ZM77.1359 14.3029C77.6143 14.3029 77.9715 14.1129 78.2074 13.7328C78.4466 13.3527 78.5662 12.8513 78.5662 12.2287C78.5662 11.675 78.4466 11.2162 78.2074 10.8525C77.9715 10.4888 77.6225 10.3069 77.1605 10.3069C76.7574 10.3069 76.4035 10.456 76.0988 10.7542C75.7974 11.0524 75.6466 11.5439 75.6466 12.2287C75.6466 12.7235 75.7089 13.1249 75.8334 13.4329C76.066 14.0129 76.5002 14.3029 77.1359 14.3029Z" fill="black"/>
<path d="M83.3932 9.65324H84.3713C84.2468 9.99074 83.9699 10.7608 83.5407 11.9633C83.2195 12.8677 82.9508 13.605 82.7346 14.1751C82.2234 15.5186 81.863 16.3378 81.6533 16.6327C81.4435 16.9276 81.0831 17.075 80.5719 17.075C80.4474 17.075 80.3508 17.0701 80.282 17.0603C80.2164 17.0504 80.1345 17.0324 80.0362 17.0062V16.2001C80.1902 16.2427 80.3016 16.2689 80.3704 16.2788C80.4392 16.2886 80.4999 16.2935 80.5523 16.2935C80.7161 16.2935 80.8357 16.2657 80.9111 16.21C80.9897 16.1575 81.0553 16.092 81.1077 16.0134C81.1241 15.9872 81.1831 15.8528 81.2846 15.6103C81.3862 15.3678 81.4599 15.1876 81.5058 15.0697L79.5594 9.65324H80.5621L81.9727 13.9392L83.3932 9.65324Z" fill="black"/>
<path d="M87.1344 7.67245H88.0191V10.3659C88.2288 10.1005 88.4172 9.91374 88.5843 9.8056C88.8694 9.61883 89.2249 9.52544 89.6509 9.52544C90.4144 9.52544 90.9321 9.7925 91.2041 10.3266C91.3515 10.6182 91.4252 11.0229 91.4252 11.5406V14.9173H90.516V11.5996C90.516 11.213 90.4668 10.9295 90.3685 10.7493C90.2079 10.4609 89.9065 10.3168 89.4641 10.3168C89.0971 10.3168 88.7645 10.4429 88.4664 10.6952C88.1682 10.9475 88.0191 11.4243 88.0191 12.1255V14.9173H87.1344V7.67245Z" fill="black"/>
<path d="M93.2196 9.65324V13.1479C93.2196 13.4166 93.2622 13.6361 93.3474 13.8065C93.5047 14.1211 93.798 14.2783 94.2272 14.2783C94.8433 14.2783 95.2627 14.0031 95.4855 13.4526C95.6067 13.1577 95.6674 12.753 95.6674 12.2386V9.65324H96.5521V14.9173H95.7165L95.7263 14.1407C95.6117 14.3406 95.4691 14.5093 95.2987 14.647C94.9612 14.9222 94.5516 15.0598 94.07 15.0598C93.3196 15.0598 92.8084 14.8092 92.5364 14.3078C92.389 14.0391 92.3153 13.6803 92.3153 13.2314V9.65324H93.2196Z" fill="black"/>
<path d="M97.5355 9.65324H98.4104V10.4003C98.6201 10.1415 98.8101 9.95306 98.9805 9.83509C99.2722 9.63521 99.6031 9.53527 99.9734 9.53527C100.393 9.53527 100.73 9.63849 100.986 9.84492C101.13 9.96289 101.261 10.1366 101.379 10.3659C101.576 10.0841 101.807 9.87605 102.072 9.74171C102.338 9.60409 102.636 9.53527 102.967 9.53527C103.674 9.53527 104.156 9.79086 104.412 10.302C104.549 10.5773 104.618 10.9475 104.618 11.4128V14.9173H103.699V11.2605C103.699 10.9099 103.611 10.669 103.434 10.538C103.26 10.4069 103.047 10.3413 102.795 10.3413C102.447 10.3413 102.147 10.4577 101.895 10.6903C101.646 10.923 101.522 11.3113 101.522 11.8552V14.9173H100.622V11.4816C100.622 11.1245 100.58 10.864 100.494 10.7002C100.36 10.4544 100.109 10.3315 99.7424 10.3315C99.4081 10.3315 99.1034 10.4609 98.8282 10.7198C98.5562 10.9787 98.4202 11.4472 98.4202 12.1255V14.9173H97.5355V9.65324Z" fill="black"/>
<path d="M106.196 13.5165C106.196 13.7721 106.29 13.9736 106.476 14.1211C106.663 14.2685 106.884 14.3422 107.14 14.3422C107.451 14.3422 107.753 14.2701 108.044 14.126C108.536 13.8868 108.782 13.4952 108.782 12.9513V12.2386C108.673 12.3074 108.534 12.3647 108.364 12.4106C108.193 12.4565 108.026 12.4892 107.862 12.5089L107.327 12.5777C107.006 12.6203 106.765 12.6875 106.604 12.7792C106.332 12.9332 106.196 13.179 106.196 13.5165ZM108.339 11.7274C108.542 11.7012 108.678 11.616 108.747 11.4718C108.787 11.3932 108.806 11.2801 108.806 11.1327C108.806 10.8312 108.698 10.6133 108.482 10.479C108.269 10.3413 107.962 10.2725 107.563 10.2725C107.101 10.2725 106.773 10.3971 106.58 10.6461C106.472 10.7837 106.401 10.9885 106.368 11.2605H105.543C105.559 10.6117 105.769 10.1611 106.172 9.90882C106.578 9.65324 107.048 9.52544 107.582 9.52544C108.202 9.52544 108.705 9.64341 109.091 9.87933C109.475 10.1153 109.666 10.4822 109.666 10.9803V14.0129C109.666 14.1047 109.684 14.1784 109.72 14.2341C109.76 14.2898 109.84 14.3177 109.961 14.3177C110.001 14.3177 110.045 14.316 110.094 14.3127C110.143 14.3062 110.196 14.298 110.251 14.2882V14.9419C110.114 14.9812 110.009 15.0058 109.937 15.0156C109.865 15.0254 109.766 15.0303 109.642 15.0303C109.337 15.0303 109.116 14.9222 108.978 14.7059C108.906 14.5913 108.855 14.4291 108.826 14.2194C108.646 14.4553 108.387 14.6601 108.049 14.8337C107.712 15.0074 107.34 15.0942 106.934 15.0942C106.445 15.0942 106.046 14.9468 105.734 14.6519C105.426 14.3537 105.272 13.9818 105.272 13.5362C105.272 13.0479 105.425 12.6695 105.729 12.4008C106.034 12.1321 106.434 11.9666 106.929 11.9043L108.339 11.7274Z" fill="black"/>
<path d="M110.719 9.65324H111.559V10.4003C111.808 10.0923 112.072 9.87114 112.35 9.73679C112.629 9.60245 112.939 9.53527 113.279 9.53527C114.026 9.53527 114.531 9.79577 114.793 10.3168C114.937 10.6018 115.009 11.0098 115.009 11.5406V14.9173H114.11V11.5996C114.11 11.2785 114.062 11.0196 113.967 10.823C113.81 10.4954 113.525 10.3315 113.112 10.3315C112.902 10.3315 112.73 10.3528 112.596 10.3954C112.354 10.4675 112.141 10.6117 111.957 10.8279C111.81 11.0016 111.713 11.1818 111.667 11.3686C111.625 11.5521 111.603 11.8159 111.603 12.1599V14.9173H110.719V9.65324Z" fill="black"/>
</svg>
